<mxfile host="app.diagrams.net" modified="2021-04-15T01:57:48.166Z" agent="5.0 (Windows NT 10.0; Win64; x64) AppleWebKit/537.36 (KHTML, like Gecko) Chrome/89.0.4389.128 Safari/537.36" etag="_PHsnLW_RWYgCmTjLmzB" version="14.4.4" type="github">
  <diagram id="C5RBs43oDa-KdzZeNtuy" name="Page-1">
    <mxGraphModel dx="1317" dy="454" grid="1" gridSize="10" guides="1" tooltips="1" connect="1" arrows="1" fold="1" page="1" pageScale="1" pageWidth="827" pageHeight="1169" math="0" shadow="0">
      <root>
        <mxCell id="WIyWlLk6GJQsqaUBKTNV-0" />
        <mxCell id="WIyWlLk6GJQsqaUBKTNV-1" parent="WIyWlLk6GJQsqaUBKTNV-0" />
        <mxCell id="oxnMFIMo6EgywjvBsu5N-2" value="" style="edgeStyle=orthogonalEdgeStyle;rounded=0;orthogonalLoop=1;jettySize=auto;html=1;" edge="1" parent="WIyWlLk6GJQsqaUBKTNV-1" source="oxnMFIMo6EgywjvBsu5N-0" target="oxnMFIMo6EgywjvBsu5N-1">
          <mxGeometry relative="1" as="geometry" />
        </mxCell>
        <mxCell id="oxnMFIMo6EgywjvBsu5N-0" value="Start" style="ellipse;whiteSpace=wrap;html=1;" vertex="1" parent="WIyWlLk6GJQsqaUBKTNV-1">
          <mxGeometry x="-60" y="80" width="120" height="80" as="geometry" />
        </mxCell>
        <mxCell id="oxnMFIMo6EgywjvBsu5N-4" value="" style="edgeStyle=orthogonalEdgeStyle;rounded=0;orthogonalLoop=1;jettySize=auto;html=1;" edge="1" parent="WIyWlLk6GJQsqaUBKTNV-1" source="oxnMFIMo6EgywjvBsu5N-1" target="oxnMFIMo6EgywjvBsu5N-3">
          <mxGeometry relative="1" as="geometry" />
        </mxCell>
        <mxCell id="oxnMFIMo6EgywjvBsu5N-1" value="Output:&lt;br&gt;&quot;Welcome to Loylandia&quot;" style="shape=parallelogram;perimeter=parallelogramPerimeter;whiteSpace=wrap;html=1;fixedSize=1;" vertex="1" parent="WIyWlLk6GJQsqaUBKTNV-1">
          <mxGeometry x="-60" y="200" width="120" height="60" as="geometry" />
        </mxCell>
        <mxCell id="oxnMFIMo6EgywjvBsu5N-6" value="" style="edgeStyle=orthogonalEdgeStyle;rounded=0;orthogonalLoop=1;jettySize=auto;html=1;" edge="1" parent="WIyWlLk6GJQsqaUBKTNV-1" source="oxnMFIMo6EgywjvBsu5N-3" target="oxnMFIMo6EgywjvBsu5N-5">
          <mxGeometry relative="1" as="geometry" />
        </mxCell>
        <mxCell id="oxnMFIMo6EgywjvBsu5N-3" value="Input:&lt;br&gt;advName&lt;br&gt;" style="shape=parallelogram;perimeter=parallelogramPerimeter;whiteSpace=wrap;html=1;fixedSize=1;" vertex="1" parent="WIyWlLk6GJQsqaUBKTNV-1">
          <mxGeometry x="-60" y="300" width="120" height="60" as="geometry" />
        </mxCell>
        <mxCell id="oxnMFIMo6EgywjvBsu5N-9" value="" style="edgeStyle=orthogonalEdgeStyle;rounded=0;orthogonalLoop=1;jettySize=auto;html=1;" edge="1" parent="WIyWlLk6GJQsqaUBKTNV-1" source="oxnMFIMo6EgywjvBsu5N-5" target="oxnMFIMo6EgywjvBsu5N-8">
          <mxGeometry relative="1" as="geometry" />
        </mxCell>
        <mxCell id="oxnMFIMo6EgywjvBsu5N-5" value="Input:&lt;br&gt;&quot;pick your class?&lt;br&gt;Warrior, Archer, Priest&quot;" style="shape=parallelogram;perimeter=parallelogramPerimeter;whiteSpace=wrap;html=1;fixedSize=1;" vertex="1" parent="WIyWlLk6GJQsqaUBKTNV-1">
          <mxGeometry x="-60" y="400" width="120" height="60" as="geometry" />
        </mxCell>
        <mxCell id="oxnMFIMo6EgywjvBsu5N-11" value="" style="edgeStyle=orthogonalEdgeStyle;rounded=0;orthogonalLoop=1;jettySize=auto;html=1;" edge="1" parent="WIyWlLk6GJQsqaUBKTNV-1" source="oxnMFIMo6EgywjvBsu5N-8" target="oxnMFIMo6EgywjvBsu5N-10">
          <mxGeometry relative="1" as="geometry" />
        </mxCell>
        <mxCell id="oxnMFIMo6EgywjvBsu5N-13" value="" style="edgeStyle=orthogonalEdgeStyle;rounded=0;orthogonalLoop=1;jettySize=auto;html=1;" edge="1" parent="WIyWlLk6GJQsqaUBKTNV-1" source="oxnMFIMo6EgywjvBsu5N-8" target="oxnMFIMo6EgywjvBsu5N-12">
          <mxGeometry relative="1" as="geometry" />
        </mxCell>
        <mxCell id="oxnMFIMo6EgywjvBsu5N-8" value="&quot;Warrior?&quot;" style="rhombus;whiteSpace=wrap;html=1;" vertex="1" parent="WIyWlLk6GJQsqaUBKTNV-1">
          <mxGeometry x="-40" y="504.5" width="80" height="80" as="geometry" />
        </mxCell>
        <mxCell id="oxnMFIMo6EgywjvBsu5N-10" value="Give Following:&lt;br&gt;&quot;Dual Hand Axe&quot; (item)&lt;br&gt;&quot;Throwing Axe&quot; (item)&lt;br&gt;&quot;Shoulder Throw&quot; (skill)&lt;br&gt;&quot;Health Potion x3&quot; (item)" style="whiteSpace=wrap;html=1;" vertex="1" parent="WIyWlLk6GJQsqaUBKTNV-1">
          <mxGeometry x="80" y="506.75" width="150" height="75.5" as="geometry" />
        </mxCell>
        <mxCell id="oxnMFIMo6EgywjvBsu5N-15" value="" style="edgeStyle=orthogonalEdgeStyle;rounded=0;orthogonalLoop=1;jettySize=auto;html=1;" edge="1" parent="WIyWlLk6GJQsqaUBKTNV-1" source="oxnMFIMo6EgywjvBsu5N-12" target="oxnMFIMo6EgywjvBsu5N-14">
          <mxGeometry relative="1" as="geometry" />
        </mxCell>
        <mxCell id="oxnMFIMo6EgywjvBsu5N-17" value="" style="edgeStyle=orthogonalEdgeStyle;rounded=0;orthogonalLoop=1;jettySize=auto;html=1;" edge="1" parent="WIyWlLk6GJQsqaUBKTNV-1" source="oxnMFIMo6EgywjvBsu5N-12" target="oxnMFIMo6EgywjvBsu5N-16">
          <mxGeometry relative="1" as="geometry" />
        </mxCell>
        <mxCell id="oxnMFIMo6EgywjvBsu5N-12" value="&quot;Archer?&quot;" style="rhombus;whiteSpace=wrap;html=1;" vertex="1" parent="WIyWlLk6GJQsqaUBKTNV-1">
          <mxGeometry x="-40" y="620" width="80" height="80" as="geometry" />
        </mxCell>
        <mxCell id="oxnMFIMo6EgywjvBsu5N-14" value="Give Following:&lt;br&gt;&quot;Bow&quot; (item)&lt;br&gt;&quot;Dagger&quot; (item)&lt;br&gt;&quot;Rapid fire&quot; (skill)&lt;br&gt;&quot;Health Potion x3&quot; (item)" style="whiteSpace=wrap;html=1;" vertex="1" parent="WIyWlLk6GJQsqaUBKTNV-1">
          <mxGeometry x="80" y="620" width="140" height="80" as="geometry" />
        </mxCell>
        <mxCell id="oxnMFIMo6EgywjvBsu5N-19" value="" style="edgeStyle=orthogonalEdgeStyle;rounded=0;orthogonalLoop=1;jettySize=auto;html=1;" edge="1" parent="WIyWlLk6GJQsqaUBKTNV-1" source="oxnMFIMo6EgywjvBsu5N-16" target="oxnMFIMo6EgywjvBsu5N-18">
          <mxGeometry relative="1" as="geometry" />
        </mxCell>
        <mxCell id="oxnMFIMo6EgywjvBsu5N-16" value="&quot;Priest?&quot;" style="rhombus;whiteSpace=wrap;html=1;" vertex="1" parent="WIyWlLk6GJQsqaUBKTNV-1">
          <mxGeometry x="-40" y="740" width="80" height="80" as="geometry" />
        </mxCell>
        <mxCell id="oxnMFIMo6EgywjvBsu5N-18" value="Give Following:&lt;br&gt;&quot;Mace&quot; (item)&lt;br&gt;&quot;Enchanting Book&quot; (item)&lt;br&gt;&quot;Health Potion x3&quot; (item)&lt;br&gt;&quot;Enchantment: Fire word&quot; (skill)" style="whiteSpace=wrap;html=1;" vertex="1" parent="WIyWlLk6GJQsqaUBKTNV-1">
          <mxGeometry x="80" y="735" width="170" height="90" as="geometry" />
        </mxCell>
      </root>
    </mxGraphModel>
  </diagram>
</mxfile>
